<?xml version="1.0" encoding="utf-8"?>
<!-- Generator: Adobe Illustrator 21.1.0, SVG Export Plug-In . SVG Version: 6.00 Build 0)  -->
<svg version="1.1" id="Layer_1" xmlns="http://www.w3.org/2000/svg" xmlns:xlink="http://www.w3.org/1999/xlink" x="0px" y="0px"
	 width="430px" height="85px" viewBox="0 0 430 85" style="enable-background:new 0 0 430 85;" xml:space="preserve">
<style type="text/css">
	.st0{fill:#FEFEFE;}
	.st1{fill:#8C8C8C;}
	.st2{fill:#FAA26D;}
	.st3{fill:#626673;}
	.st4{fill:#fa8c4a;}
</style>
<g>
	<g>
		<path class="st0" d="M7.2,53.1c0-12.3,0-24.6,0-36.9c0-0.8,0.1-1.1,1-1.1c4.8,0.1,9.6,0,14.4,0c0.1,0.1,0.1,0.2,0.1,0.3
			c-2.3,3-4.1,6.1-5.4,9.7c-2.4,6.7-1.1,13,2.4,18.9c1.7,2.9,1.8,2.8,5.2,2.8c0.9,0,1.8,0,2.8,0c1.3,0,1.3,0,0.7-1.1
			c-1.3-2.5-2.1-5.1-2-7.9c0.1-1.4,0.3-2.7,0.7-4c0.3-1.2,0.7-1.4,1.9-0.9c3.9,1.8,6.5,4.7,7.9,8.7c0.5,1.4,0.7,1.5,2.2,1.2
			c2.8-0.6,5.3-2,7.6-3.7c0.4-0.3,0.8-0.9,1.3-0.5c0.5,0.3,0.1,0.9,0.1,1.4c-0.3,2.1-1.3,4-2.3,5.9c-0.6,1-0.5,1,0.6,1
			c1.7,0,3.4,0,5,0c0.7,0,1.3-0.2,1.8-0.8c3-3.7,4.8-8,4.8-12.8c0-4.4-1.6-8.4-4.2-11.9c-1-1.4-1.9-1.3-2.9,0.2
			c-2.1,3.1-4.6,5.8-7.8,7.8c-1.4,0.9-1.6,0.8-2.5-0.6c-3.6-6-8.8-10.2-15.2-12.8c-0.4-0.2-0.9-0.3-1.3-0.6c-0.1-0.1-0.1-0.2,0-0.3
			c132.7,0,265.3,0,398,0c1,0,1.2,0.2,1.2,1.2c0,18,0,36,0,54c0,0.9-0.2,1-1,1c-138,0-276,0-413.9,0c-0.8,0-1-0.2-1-1
			c0-5.1,0-10.2,0-15.4c0.1-0.1,0.2-0.1,0.4,0c1.1,1.9,2.9,2.4,4.9,2.3c1,0,2.1,0,3.1,0c0.7,0,1.1-0.3,1.1-1.1c0-1.4,0-2.7,0-4.1
			c0-0.7-0.4-1.1-1.1-1.1c-1.7,0-3.4-0.1-5,0c-1.3,0.1-2.2,1-3,2C7.4,53.2,7.3,53.2,7.2,53.1z"/>
		<path class="st1" d="M7.4,55.1l-0.1,0L7.2,55c0-0.6,0-1.3,0-1.9c0.1,0,0.2,0,0.2,0C7.9,53.7,7.9,54.4,7.4,55.1z"/>
		<path class="st2" d="M22.5,15.4c0-0.1,0-0.1,0-0.2c0.5,0,1,0,1.4,0c0,0.1,0,0.2,0,0.2C23.5,15.8,23,15.8,22.5,15.4z"/>
		<path class="st3" d="M71.5,44.4c-0.1-11.1,7.5-20.3,19.8-21.9c6.7-0.9,13,0.4,18.5,4.5c6.3,4.7,8.9,11.3,8.4,19
			c-0.8,11.4-9.2,19-20.1,20.2c-4.6,0.5-9.1,0-13.4-1.8C76.4,61,71.5,53.6,71.5,44.4z"/>
		<path class="st3" d="M411.3,38.1c0-4.5,0-8.8,0-13.1c0-0.4,0-0.9,0-1.3c0-0.5,0.2-0.6,0.6-0.6c3.4,0,6.9,0,10.3,0
			c0.5,0,0.6,0.2,0.6,0.7c0,0.2,0,0.4,0,0.6c0,13.4,0,26.8,0,40.2c0,1.1-0.2,1.3-1.3,1.3c-3-0.1-6.1-0.1-9.1,0c-1,0-1.2-0.3-1.1-1.2
			c0.1-0.6,0-1.2,0-1.8c-0.4-0.2-0.5,0.1-0.6,0.3c-5.5,5.6-15.3,3.9-19.2-2.7c-1.3-2.1-2-4.4-2.3-6.8c-0.5-4.9-0.2-9.7,2.7-14
			C396.2,33.3,405.9,32,411.3,38.1z"/>
		<path class="st3" d="M332.7,45.5c2.1-3.2,4.2-6.4,6.2-9.7c0.5-0.7,0.9-1,1.8-1c4.2,0,8.4,0,12.8,0c-1.1,1.5-2.2,2.9-3.2,4.2
			c-2.2,2.9-4.3,5.8-6.5,8.6c-0.7,0.9-0.8,1.5-0.1,2.5c3.3,4.8,6.5,9.7,9.8,14.5c0.2,0.3,0.4,0.6,0.6,0.9c-0.3,0.4-0.6,0.2-0.9,0.2
			c-4,0-8.1,0-12.1,0c-0.8,0-1.2-0.3-1.5-1c-1.5-3-3.1-5.9-4.8-9c-1.4,1.6-2.7,3-2.3,5.3c0.2,1.2,0,2.4,0.1,3.6c0.1,0.9-0.3,1-1.1,1
			c-3.2,0-6.3-0.1-9.5,0c-1.1,0-1-0.5-1-1.2c0-10.3,0-20.5,0-30.8c0-3.2,0-6.5,0-9.7c0-0.8,0.2-1,1-1c3.2,0,6.3,0.1,9.5,0
			c0.9,0,1.1,0.2,1.1,1.1c0,6.9,0,13.8,0,20.6c0,0.2,0,0.4,0,0.6C332.6,45.4,332.6,45.4,332.7,45.5z"/>
		<path class="st4" d="M22.5,15.4c0.5,0,1,0,1.5,0c7.3,2.5,13,7,16.9,13.6c0.5,0.9,0.9,1,1.7,0.4c3.3-2.1,5.9-4.8,8.1-8.1
			c1-1.6,2.2-1.6,3.3-0.1c5.9,8.1,5.6,17.8-0.8,25.4c-0.3,0.3-0.5,0.6-0.9,0.6c-2.5,0-5,0-7.7,0c0.9-1.5,1.7-2.7,2.3-4.1
			c0.6-1.4,1-2.8,1.1-4.6c-1.7,1.6-3.6,2.6-5.6,3.6c-1.3,0.6-2.7,1.1-4.2,1.3c-0.8,0.1-1.2-0.1-1.4-0.9c-1.3-4.4-4.1-7.4-8.2-9.3
			c-0.8-0.4-1-0.2-1.2,0.6c-1.3,4.8-0.6,9.2,2.1,13.3c-0.2,0.4-0.6,0.2-0.9,0.2c-1.4,0-2.8-0.2-4.2,0c-2.3,0.3-3.5-0.6-4.7-2.5
			c-5.2-8.4-5.2-16.7-0.3-25.2C20.3,18.2,21.1,16.6,22.5,15.4z"/>
		<path class="st3" d="M245.4,50.2c0-8.2,5.8-14.8,13.9-15.9c5.3-0.7,10.4-0.1,14.7,3.3c5.3,4.1,7.1,9.8,5.7,16.2
			c-1.4,6.6-5.8,10.6-12.3,12.1c-3.6,0.9-7.3,0.7-10.9-0.4C249.8,63.4,245.4,57.4,245.4,50.2z"/>
		<path class="st3" d="M299.5,34.1c5.9,0.2,11.1,1.9,14.6,7c6.9,10,0.7,23.7-11.4,25.2c-3.6,0.4-7.1,0.2-10.5-1.1
			c-6.8-2.7-10.7-9.2-10-16.8c0.6-6.7,5.8-12.3,12.6-13.8C296.4,34.3,297.9,34.1,299.5,34.1z"/>
		<path class="st3" d="M366.3,53.8c0.8,1.8,2,2.8,3.7,3.4c3.3,1.1,6.4,0.3,9.4-1.2c0.6-0.3,0.9-0.3,1.3,0.3c1.2,1.9,2.4,3.8,3.7,5.6
			c0.5,0.7,0.3,1.1-0.3,1.5c-2.4,1.6-5.1,2.4-7.9,2.9c-3.7,0.6-7.4,0.6-11-0.6c-6.8-2.3-10.9-8.3-10.7-15.8
			c0.3-8.7,6.9-15.3,15.7-15.6c10.1-0.4,16.9,6.1,17.2,16.5c0.1,3.2,0.1,3.2-3,3.2c-5.6,0-11.1,0-16.7,0
			C367.3,53.8,366.9,53.8,366.3,53.8z"/>
		<path class="st3" d="M166.1,53.8c1.3,2.7,3.4,3.7,6,3.8c2.8,0.1,5.4-0.6,7.8-2c1.5,2.2,2.9,4.4,4.4,6.5c0.4,0.5,0.1,0.8-0.3,1
			c-2,1.5-4.4,2.3-6.8,2.8c-3.9,0.8-7.8,0.9-11.6-0.2c-7.3-2.1-11.6-8.2-11.4-16c0.3-8.7,6.8-15.3,15.7-15.6
			c10.1-0.4,16.9,6.1,17.3,16.6c0.1,3.1,0.1,3.1-3,3.1C178.2,53.8,172.3,53.8,166.1,53.8z"/>
		<path class="st3" d="M118.2,34.8c3.8,0,7.6,0,11.4,0c0.8,0,0.9,0.5,1,1c1.7,5,3.4,10.1,5,15.1c0.1,0.4,0.2,0.9,0.6,1.3
			c1.8-5.5,3.7-10.9,5.5-16.3c0.3-0.8,0.6-1.1,1.5-1.1c3.6,0.1,7.3,0,10.9,0c0.1,0.5-0.1,0.8-0.3,1.2c-3.7,9.6-7.4,19.1-11.1,28.7
			c-0.3,0.8-0.7,1.1-1.6,1.1c-3.4-0.1-6.8,0-10.2,0c-0.6,0-0.9-0.1-1.2-0.7c-3.8-10-7.7-19.9-11.6-29.9
			C118.2,35.1,118.2,35,118.2,34.8z"/>
		<path class="st3" d="M213.5,50.2c0-8.3,5.7-14.7,13.9-15.9c4.6-0.6,9.1-0.2,13.1,2.4c1.1,0.7,2.2,1.6,3,2.7
			c0.3,0.4,0.4,0.7-0.1,1.1c-2.2,2-4.3,4-6.4,6c-0.4,0.4-0.6,0.4-1,0c-1.9-2-4.3-2.4-6.8-1.7c-2.8,0.8-4.3,3.3-3.9,6.6
			c0.3,2.7,2.5,4.7,5.4,4.9c2,0.1,3.8-0.5,5.2-2c0.4-0.5,0.7-0.6,1.2-0.1c2.1,2,4.2,4,6.3,5.9c0.5,0.5,0.5,0.8,0,1.3
			c-2,2.3-4.5,3.8-7.4,4.6c-4.2,1.1-8.4,0.9-12.5-0.7C217.2,62.8,213.5,57.2,213.5,50.2z"/>
		<path class="st3" d="M37.2,50.7c5.7,0,11.3,0,17,0c3.2,0,4.6,2,3.7,5.1c-1.7,5.6-5.8,8.5-11.3,9.4c-6.7,1.2-13.4,1.2-20-0.7
			c-2.8-0.8-5.1-2.4-6.8-4.8c-0.9-1.2-1.3-2.5-1.2-3.9c0-1.2,0.1-2.4,0-3.6c-0.1-1.1,0.2-1.6,1.5-1.6C25.7,50.8,31.5,50.7,37.2,50.7
			z"/>
		<path class="st3" d="M202.4,38.1c2.4-2.4,5-3.7,8-4.2c1.5-0.3,1.5-0.2,1.5,1.2c0,2.9,0,5.8,0,8.8c0,0.9-0.2,1-1.1,0.9
			c-2.5-0.3-4.9,0-7.2,1.1c-0.9,0.4-1.3,1-1.3,2.1c0.1,5.5,0,11,0.1,16.6c0,1.1-0.3,1.3-1.3,1.3c-3.1-0.1-6.2,0-9.2,0
			c-0.8,0-1-0.2-1-1c0-9.7,0-19.4,0-29c0-0.8,0.2-1,1-1c3.2,0,6.4,0,9.6,0c0.8,0,1,0.3,1,1C202.4,36.5,202.4,37.2,202.4,38.1z"/>
		<path class="st3" d="M7.4,55.1c0-0.7,0-1.3,0-2c0.6-1.5,1.7-2.3,3.3-2.3c1.7,0,3.4,0,5.2,0c0.8,0,1.1,0.3,1.1,1.2
			c0,1.6,0,3.2,0,4.8c0,0.7-0.3,0.9-0.9,0.9c-1.8,0-3.5,0-5.3,0C9.1,57.5,7.9,56.7,7.4,55.1z"/>
		<path class="st0" d="M105.1,44.5c0,6.1-4.3,10.5-10.4,10.5c-5.9,0-10.1-4.4-10.1-10.6c0-6.2,4.3-10.5,10.3-10.5
			C100.9,33.9,105.1,38.4,105.1,44.5z"/>
		<path class="st0" d="M411.3,50.4c0,0.9-0.1,1.8,0,2.6c0.1,1-0.4,1.6-1.2,2.1c-2.4,1.5-5.2,1.4-7.2-0.1c-1.9-1.5-2.7-4.1-1.9-6.7
			c0.8-2.7,3.5-4.3,6.4-3.8c0.5,0.1,1,0.2,1.5,0.4c2.2,0.7,2.5,1.2,2.5,3.4C411.3,49,411.3,49.7,411.3,50.4z"/>
		<path class="st0" d="M268.3,50.3c0,3.6-2.2,5.9-5.5,5.9c-3.3,0-5.5-2.3-5.5-5.9c0-3.5,2.2-5.9,5.5-5.9
			C266.2,44.5,268.3,46.7,268.3,50.3z"/>
		<path class="st0" d="M305,50.3c0,3.6-2.2,5.9-5.5,5.9c-3.3,0-5.5-2.3-5.5-5.9c0-3.5,2.2-5.9,5.6-5.8
			C302.9,44.5,305.1,46.8,305,50.3z"/>
		<path class="st0" d="M366.3,46.6c0.5-2.3,2.2-3.5,4.8-3.6c2.8,0,4.5,1.2,5.1,3.6c-3.1,0-6.2,0-9.3,0
			C366.7,46.6,366.5,46.6,366.3,46.6z"/>
		<path class="st0" d="M176.1,46.6c-3.3,0-6.6,0-9.9,0c0.1-1.9,1.7-3.3,4-3.5C173.2,42.7,175.3,43.9,176.1,46.6z"/>
	</g>
</g>
</svg>
